<?xml version="1.0" encoding="utf-8"?>
<svg version="1.1" xmlns:xlink="http://www.w3.org/1999/xlink" width="14px" height="14px" xmlns="http://www.w3.org/2000/svg">
  <g transform="matrix(1 0 0 1 -1091 -227 )">
    <path d="M 1098 227  C 1101.92 227  1105 230.08  1105 234  C 1105 237.92  1101.92 241  1098 241  C 1094.08 241  1091 237.92  1091 234  C 1091 230.08  1094.08 227  1098 227  Z " fill-rule="nonzero" fill="#ffffff" stroke="none" fill-opacity="0" />
    <path d="M 1098 227.5  C 1101.64 227.5  1104.5 230.36  1104.5 234  C 1104.5 237.64  1101.64 240.5  1098 240.5  C 1094.36 240.5  1091.5 237.64  1091.5 234  C 1091.5 230.36  1094.36 227.5  1098 227.5  Z " stroke-width="1" stroke="#d9d9d9" fill="none" />
  </g>
</svg>