<?xml version="1.0" encoding="utf-8"?>
<svg version="1.1" xmlns:xlink="http://www.w3.org/1999/xlink" width="110px" height="110px" xmlns="http://www.w3.org/2000/svg">
  <g transform="matrix(1 0 0 1 -1048 -147 )">
    <path d="M 1098.02285975295 147.72774120219  C 1099.67748035407 147.576001084971  1101.33826179578 147.5  1103 147.5  C 1133.09951886578 147.5  1157.5 171.900481134222  1157.5 202  C 1157.5 232.099518865778  1133.09951886578 256.5  1103 256.5  C 1072.90048113422 256.5  1048.5 232.099518865778  1048.5 202  C 1048.5 192.599971361646  1050.93123552292 183.362662762838  1055.55360131349 175.184159215455  L 1102.75 202.433012701892  A 0.5 0.5 0 0 0 1103.49747076072 201.949772097104 L 1098.02285975311 147.727741202175  Z " fill-rule="nonzero" fill="#99d5fd" stroke="none" />
    <path d="M 1098.02285975295 147.72774120219  C 1099.67748035407 147.576001084971  1101.33826179578 147.5  1103 147.5  C 1133.09951886578 147.5  1157.5 171.900481134222  1157.5 202  C 1157.5 232.099518865778  1133.09951886578 256.5  1103 256.5  C 1072.90048113422 256.5  1048.5 232.099518865778  1048.5 202  C 1048.5 192.599971361646  1050.93123552292 183.362662762838  1055.55360131349 175.184159215455  L 1102.75 202.433012701892  A 0.5 0.5 0 0 0 1103.49747076072 201.949772097104 L 1098.02285975311 147.727741202175  Z " stroke-width="1" stroke="#ffffff" fill="none" />
  </g>
</svg>