<?xml version="1.0" encoding="utf-8"?>
<svg version="1.1" xmlns:xlink="http://www.w3.org/1999/xlink" width="64px" height="24px" xmlns="http://www.w3.org/2000/svg">
  <g transform="matrix(1 0 0 1 -419 -1052 )">
    <path d="M 420 1056  A 3 3 0 0 1 423 1053 L 479 1053  A 3 3 0 0 1 482 1056 L 482 1072  A 3 3 0 0 1 479 1075 L 423 1075  A 3 3 0 0 1 420 1072 L 420 1056  Z " fill-rule="nonzero" fill="#ffffff" stroke="none" />
    <path d="M 419.5 1056  A 3.5 3.5 0 0 1 423 1052.5 L 479 1052.5  A 3.5 3.5 0 0 1 482.5 1056 L 482.5 1072  A 3.5 3.5 0 0 1 479 1075.5 L 423 1075.5  A 3.5 3.5 0 0 1 419.5 1072 L 419.5 1056  Z " stroke-width="1" stroke-dasharray="9,4" stroke="#d9d9d9" fill="none" stroke-dashoffset="0.5" />
  </g>
</svg>