<?xml version="1.0" encoding="utf-8"?>
<svg version="1.1" xmlns:xlink="http://www.w3.org/1999/xlink" width="33px" height="33px" xmlns="http://www.w3.org/2000/svg">
  <g transform="matrix(1 0 0 1 -127 -299 )">
    <path d="M 143.5 299  C 152.74 299  160 306.26  160 315.5  C 160 324.74  152.74 332  143.5 332  C 134.26 332  127 324.74  127 315.5  C 127 306.26  134.26 299  143.5 299  Z " fill-rule="nonzero" fill="#ffffff" stroke="none" />
    <path d="M 143.5 299.5  C 152.46 299.5  159.5 306.54  159.5 315.5  C 159.5 324.46  152.46 331.5  143.5 331.5  C 134.54 331.5  127.5 324.46  127.5 315.5  C 127.5 306.54  134.54 299.5  143.5 299.5  Z " stroke-width="1" stroke="#ffffff" fill="none" />
  </g>
</svg>