<?xml version="1.0" encoding="utf-8"?>
<svg version="1.1" xmlns:xlink="http://www.w3.org/1999/xlink" width="54px" height="54px" xmlns="http://www.w3.org/2000/svg">
  <g transform="matrix(1 0 0 1 -117 -289 )">
    <path d="M 144 289  C 159.12 289  171 300.88  171 316  C 171 331.12  159.12 343  144 343  C 128.88 343  117 331.12  117 316  C 117 300.88  128.88 289  144 289  Z " fill-rule="nonzero" fill="#e9e9e9" stroke="none" />
    <path d="M 144 289.5  C 158.84 289.5  170.5 301.16  170.5 316  C 170.5 330.84  158.84 342.5  144 342.5  C 129.16 342.5  117.5 330.84  117.5 316  C 117.5 301.16  129.16 289.5  144 289.5  Z " stroke-width="1" stroke="#ffffff" fill="none" />
  </g>
</svg>