<?xml version="1.0" encoding="utf-8"?>
<svg version="1.1" xmlns:xlink="http://www.w3.org/1999/xlink" width="54px" height="54px" xmlns="http://www.w3.org/2000/svg">
  <g transform="matrix(1 0 0 1 -117 -289 )">
    <path d="M 141.835865797494 289.58851531664  C 142.555666697774 289.529535453437  143.277647440918 289.5  144 289.5  C 158.635545870516 289.5  170.5 301.364454129484  170.5 316  C 170.5 330.635545870516  158.635545870516 342.5  144 342.5  C 129.364454129484 342.5  117.5 330.635545870516  117.5 316  C 117.5 311.515057486972  118.638237969969 307.10629604556  120.804411237559 303.185370853183  L 143.75 316.433012701892  A 0.5 0.5 0 0 0 144.497470760719 315.949772097104 L 141.835865797521 289.588515316638  Z " fill-rule="nonzero" fill="#99d5fd" stroke="none" />
    <path d="M 141.835865797494 289.58851531664  C 142.555666697774 289.529535453437  143.277647440918 289.5  144 289.5  C 158.635545870516 289.5  170.5 301.364454129484  170.5 316  C 170.5 330.635545870516  158.635545870516 342.5  144 342.5  C 129.364454129484 342.5  117.5 330.635545870516  117.5 316  C 117.5 311.515057486972  118.638237969969 307.10629604556  120.804411237559 303.185370853183  L 143.75 316.433012701892  A 0.5 0.5 0 0 0 144.497470760719 315.949772097104 L 141.835865797521 289.588515316638  Z " stroke-width="1" stroke="#ffffff" fill="none" />
  </g>
</svg>