<?xml version="1.0" encoding="utf-8"?>
<svg version="1.1" xmlns:xlink="http://www.w3.org/1999/xlink" width="54px" height="54px" xmlns="http://www.w3.org/2000/svg">
  <g transform="matrix(1 0 0 1 -315 -289 )">
    <path d="M 339.835865797494 289.58851531664  C 340.555666697774 289.529535453437  341.277647440918 289.5  342 289.5  C 356.635545870516 289.5  368.5 301.364454129484  368.5 316  C 368.5 330.635545870516  356.635545870516 342.5  342 342.5  C 328.441742202675 342.5  317.099940987751 332.273600325617  315.653245229466 318.846492811856  L 342.044318343823 316.498032011422  A 0.5 0.5 0 0 0 342.497470760719 315.949772097104 L 339.835865797521 289.588515316638  Z " fill-rule="nonzero" fill="#0096fa" stroke="none" />
    <path d="M 339.835865797494 289.58851531664  C 340.555666697774 289.529535453437  341.277647440918 289.5  342 289.5  C 356.635545870516 289.5  368.5 301.364454129484  368.5 316  C 368.5 330.635545870516  356.635545870516 342.5  342 342.5  C 328.441742202675 342.5  317.099940987751 332.273600325617  315.653245229466 318.846492811856  L 342.044318343823 316.498032011422  A 0.5 0.5 0 0 0 342.497470760719 315.949772097104 L 339.835865797521 289.588515316638  Z " stroke-width="1" stroke="#ffffff" fill="none" />
  </g>
</svg>