<?xml version="1.0" encoding="utf-8"?>
<svg version="1.1" xmlns:xlink="http://www.w3.org/1999/xlink" width="14px" height="14px" xmlns="http://www.w3.org/2000/svg">
  <g transform="matrix(1 0 0 1 -1029 -226 )">
    <path d="M 1036 226  C 1039.92 226  1043 229.08  1043 233  C 1043 236.92  1039.92 240  1036 240  C 1032.08 240  1029 236.92  1029 233  C 1029 229.08  1032.08 226  1036 226  Z " fill-rule="nonzero" fill="#ffffff" stroke="none" fill-opacity="0" />
    <path d="M 1036 226.5  C 1039.64 226.5  1042.5 229.36  1042.5 233  C 1042.5 236.64  1039.64 239.5  1036 239.5  C 1032.36 239.5  1029.5 236.64  1029.5 233  C 1029.5 229.36  1032.36 226.5  1036 226.5  Z " stroke-width="1" stroke="#1890ff" fill="none" />
  </g>
</svg>