<?xml version="1.0" encoding="utf-8"?>
<svg version="1.1" xmlns:xlink="http://www.w3.org/1999/xlink" width="10px" height="10px" xmlns="http://www.w3.org/2000/svg">
  <g transform="matrix(1 0 0 1 -25 -347 )">
    <path d="M 30 348  C 32.24 348  34 349.76  34 352  C 34 354.24  32.24 356  30 356  C 27.76 356  26 354.24  26 352  C 26 349.76  27.76 348  30 348  Z " fill-rule="nonzero" fill="#ffffff" stroke="none" />
    <path d="M 30 348  C 32.24 348  34 349.76  34 352  C 34 354.24  32.24 356  30 356  C 27.76 356  26 354.24  26 352  C 26 349.76  27.76 348  30 348  Z " stroke-width="2" stroke="#d9d9d9" fill="none" />
  </g>
</svg>