<?xml version="1.0" encoding="utf-8"?>
<svg version="1.1" xmlns:xlink="http://www.w3.org/1999/xlink" width="10px" height="10px" xmlns="http://www.w3.org/2000/svg">
  <g transform="matrix(1 0 0 1 -26 -86 )">
    <path d="M 31 87  C 33.24 87  35 88.76  35 91  C 35 93.24  33.24 95  31 95  C 28.76 95  27 93.24  27 91  C 27 88.76  28.76 87  31 87  Z " fill-rule="nonzero" fill="#ffffff" stroke="none" />
    <path d="M 31 87  C 33.24 87  35 88.76  35 91  C 35 93.24  33.24 95  31 95  C 28.76 95  27 93.24  27 91  C 27 88.76  28.76 87  31 87  Z " stroke-width="2" stroke="#1890ff" fill="none" />
  </g>
</svg>