<?xml version="1.0" encoding="utf-8"?>
<svg version="1.1" xmlns:xlink="http://www.w3.org/1999/xlink" width="8px" height="18px" xmlns="http://www.w3.org/2000/svg">
  <g transform="matrix(1 0 0 1 -152 -16 )">
    <path d="M 7.86254295532649 8.58517034068132  C 7.95418098510879 8.70541082164334  8 8.84368737474949  8 9  C 8 9.15631262525051  7.95418098510879 9.29458917835666  7.86254295532649 9.41482965931868  L 1.45704467353949 17.8196392785571  C 1.36540664375718 17.939879759519  1.26002290950748 18  1.14089347079039 18  C 1.02176403207329 18  0.916380297823594 17.939879759519  0.824742268041291 17.8196392785571  L 0.137457044673511 16.9178356713427  C 0.0458190148912081 16.7975951903807  0 16.6593186372745  0 16.5030060120241  C 0 16.3466933867735  0.0458190148912081 16.2084168336673  0.137457044673511 16.0881763527054  L 5.53951890034364 9  L 0.137457044673511 1.91182364729457  C 0.0458190148912081 1.79158316633266  0 1.6533066132265  0 1.49699398797594  C 0 1.34068136272549  0.0458190148912081 1.20240480961928  0.137457044673511 1.08216432865726  L 0.824742268041291 0.180360721442923  C 0.916380297823594 0.0601202404810124  1.02176403207329 0  1.14089347079039 0  C 1.26002290950748 0  1.36540664375718 0.0601202404810124  1.45704467353949 0.180360721442923  L 7.86254295532649 8.58517034068132  Z " fill-rule="nonzero" fill="#e4e4e4" stroke="none" transform="matrix(1 0 0 1 152 16 )" />
  </g>
</svg>