<?xml version="1.0" encoding="utf-8"?>
<svg version="1.1" xmlns:xlink="http://www.w3.org/1999/xlink" width="200px" height="100px" xmlns="http://www.w3.org/2000/svg">
  <g transform="matrix(1 0 0 1 -278 -1256 )">
    <path d="M 279 1260  A 3 3 0 0 1 282 1257 L 474 1257  A 3 3 0 0 1 477 1260 L 477 1352  A 3 3 0 0 1 474 1355 L 282 1355  A 3 3 0 0 1 279 1352 L 279 1260  Z " fill-rule="nonzero" fill="#ff3399" stroke="none" fill-opacity="0.0980392156862745" />
    <path d="M 278.5 1260  A 3.5 3.5 0 0 1 282 1256.5 L 474 1256.5  A 3.5 3.5 0 0 1 477.5 1260 L 477.5 1352  A 3.5 3.5 0 0 1 474 1355.5 L 282 1355.5  A 3.5 3.5 0 0 1 278.5 1352 L 278.5 1260  Z " stroke-width="1" stroke-dasharray="9,4" stroke="#ff3399" fill="none" stroke-dashoffset="0.5" />
  </g>
</svg>