<?xml version="1.0" encoding="utf-8"?>
<svg version="1.1" xmlns:xlink="http://www.w3.org/1999/xlink" width="9px" height="7px" xmlns="http://www.w3.org/2000/svg">
  <g transform="matrix(1 0 0 1 -1152 -2603 )">
    <path d="M 8.78787878787875 5.23232323232321  C 8.92929292929307 5.34231200897875  9 5.47586980920312  9 5.63299663299665  C 9 5.79012345679007  8.92929292929307 5.92368125701455  8.78787878787875 6.03367003367009  L 7.75757575757575 6.83501683501686  C 7.61616161616166 6.94500561167229  7.44444444444434 7  7.24242424242425 7  C 7.04040404040416 7  6.86868686868684 6.94500561167229  6.72727272727275 6.83501683501686  L 4.5 5.10269360269365  L 2.27272727272725 6.83501683501686  C 2.13131313131316 6.94500561167229  1.95959595959607 7  1.75757575757575 7  C 1.55555555555543 7  1.38383838383834 6.94500561167229  1.24242424242425 6.83501683501686  L 0.212121212121247 6.03367003367009  C 0.070707070707158 5.92368125701455  0 5.79012345679007  0 5.63299663299665  C 0 5.47586980920312  0.070707070707158 5.34231200897875  0.212121212121247 5.23232323232321  L 2.43939393939399 3.5  L 0.212121212121247 1.76767676767679  C 0.070707070707158 1.65768799102125  0 1.52413019079688  0 1.36700336700335  C 0 1.20987654320993  0.070707070707158 1.07631874298545  0.212121212121247 0.966329966329909  L 1.24242424242425 0.164983164983141  C 1.38383838383834 0.0549943883277138  1.55555555555543 0  1.75757575757575 0  C 1.95959595959607 0  2.13131313131316 0.0549943883277138  2.27272727272725 0.164983164983141  L 4.5 1.89730639730635  L 6.72727272727275 0.164983164983141  C 6.86868686868684 0.0549943883277138  7.04040404040416 0  7.24242424242425 0  C 7.44444444444434 0  7.61616161616166 0.0549943883277138  7.75757575757575 0.164983164983141  L 8.78787878787875 0.966329966329909  C 8.92929292929307 1.07631874298545  9 1.20987654320993  9 1.36700336700335  C 9 1.52413019079688  8.92929292929307 1.65768799102125  8.78787878787875 1.76767676767679  L 6.56060606060601 3.5  L 8.78787878787875 5.23232323232321  Z " fill-rule="nonzero" fill="#666666" stroke="none" transform="matrix(1 0 0 1 1152 2603 )" />
  </g>
</svg>