<?xml version="1.0" encoding="utf-8"?>
<svg version="1.1" xmlns:xlink="http://www.w3.org/1999/xlink" width="1014px" height="205px" xmlns="http://www.w3.org/2000/svg">
  <g transform="matrix(1 0 0 1 -368 -410 )">
    <path d="M 369 414  A 3 3 0 0 1 372 411 L 1378 411  A 3 3 0 0 1 1381 414 L 1381 611  A 3 3 0 0 1 1378 614 L 372 614  A 3 3 0 0 1 369 611 L 369 414  Z " fill-rule="nonzero" fill="#ff3399" stroke="none" fill-opacity="0.0980392156862745" />
    <path d="M 368.5 414  A 3.5 3.5 0 0 1 372 410.5 L 1378 410.5  A 3.5 3.5 0 0 1 1381.5 414 L 1381.5 611  A 3.5 3.5 0 0 1 1378 614.5 L 372 614.5  A 3.5 3.5 0 0 1 368.5 611 L 368.5 414  Z " stroke-width="1" stroke-dasharray="9,4" stroke="#ff3399" fill="none" stroke-dashoffset="0.5" />
  </g>
</svg>