<?xml version="1.0" encoding="utf-8"?>
<svg version="1.1" xmlns:xlink="http://www.w3.org/1999/xlink" width="326px" height="100px" xmlns="http://www.w3.org/2000/svg">
  <g transform="matrix(1 0 0 1 -1443 -268 )">
    <path d="M 1444 272  A 3 3 0 0 1 1447 269 L 1765 269  A 3 3 0 0 1 1768 272 L 1768 364  A 3 3 0 0 1 1765 367 L 1447 367  A 3 3 0 0 1 1444 364 L 1444 272  Z " fill-rule="nonzero" fill="#ff3399" stroke="none" fill-opacity="0.0980392156862745" />
    <path d="M 1443.5 272  A 3.5 3.5 0 0 1 1447 268.5 L 1765 268.5  A 3.5 3.5 0 0 1 1768.5 272 L 1768.5 364  A 3.5 3.5 0 0 1 1765 367.5 L 1447 367.5  A 3.5 3.5 0 0 1 1443.5 364 L 1443.5 272  Z " stroke-width="1" stroke-dasharray="9,4" stroke="#ff3399" fill="none" stroke-dashoffset="0.5" />
  </g>
</svg>