<?xml version="1.0" encoding="utf-8"?>
<svg version="1.1" xmlns:xlink="http://www.w3.org/1999/xlink" width="313px" height="240px" xmlns="http://www.w3.org/2000/svg">
  <g transform="matrix(1 0 0 1 -886 -65 )">
    <path d="M 887 69  A 3 3 0 0 1 890 66 L 1195 66  A 3 3 0 0 1 1198 69 L 1198 301  A 3 3 0 0 1 1195 304 L 890 304  A 3 3 0 0 1 887 301 L 887 69  Z " fill-rule="nonzero" fill="#ff3399" stroke="none" fill-opacity="0.0980392156862745" />
    <path d="M 886.5 69  A 3.5 3.5 0 0 1 890 65.5 L 1195 65.5  A 3.5 3.5 0 0 1 1198.5 69 L 1198.5 301  A 3.5 3.5 0 0 1 1195 304.5 L 890 304.5  A 3.5 3.5 0 0 1 886.5 301 L 886.5 69  Z " stroke-width="1" stroke-dasharray="9,4" stroke="#ff3399" fill="none" stroke-dashoffset="0.5" />
  </g>
</svg>