<?xml version="1.0" encoding="utf-8"?>
<svg version="1.1" xmlns:xlink="http://www.w3.org/1999/xlink" width="24px" height="40px" xmlns="http://www.w3.org/2000/svg">
  <g transform="matrix(1 0 0 1 -751 -72 )">
    <path d="M 752 76  A 3 3 0 0 1 755 73 L 771 73  A 3 3 0 0 1 774 76 L 774 108  A 3 3 0 0 1 771 111 L 755 111  A 3 3 0 0 1 752 108 L 752 76  Z " fill-rule="nonzero" fill="#ff3399" stroke="none" fill-opacity="0.0980392156862745" />
    <path d="M 751.5 76  A 3.5 3.5 0 0 1 755 72.5 L 771 72.5  A 3.5 3.5 0 0 1 774.5 76 L 774.5 108  A 3.5 3.5 0 0 1 771 111.5 L 755 111.5  A 3.5 3.5 0 0 1 751.5 108 L 751.5 76  Z " stroke-width="1" stroke-dasharray="9,4" stroke="#ff3399" fill="none" stroke-dashoffset="0.5" />
  </g>
</svg>