<?xml version="1.0" encoding="utf-8"?>
<svg version="1.1" xmlns:xlink="http://www.w3.org/1999/xlink" width="341px" height="100px" xmlns="http://www.w3.org/2000/svg">
  <g transform="matrix(1 0 0 1 -368 -410 )">
    <path d="M 369 414  A 3 3 0 0 1 372 411 L 705 411  A 3 3 0 0 1 708 414 L 708 506  A 3 3 0 0 1 705 509 L 372 509  A 3 3 0 0 1 369 506 L 369 414  Z " fill-rule="nonzero" fill="#ff3399" stroke="none" fill-opacity="0.0980392156862745" />
    <path d="M 368.5 414  A 3.5 3.5 0 0 1 372 410.5 L 705 410.5  A 3.5 3.5 0 0 1 708.5 414 L 708.5 506  A 3.5 3.5 0 0 1 705 509.5 L 372 509.5  A 3.5 3.5 0 0 1 368.5 506 L 368.5 414  Z " stroke-width="1" stroke-dasharray="9,4" stroke="#ff3399" fill="none" stroke-dashoffset="0.5" />
  </g>
</svg>