<?xml version="1.0" encoding="utf-8"?><svg version="1.1" xmlns:xlink="http://www.w3.org/1999/xlink" width="12px" height="12px" viewBox="1019 1536  12 12" xmlns="http://www.w3.org/2000/svg"><path d="M 1025 1536  C 1028.36 1536  1031 1538.64  1031 1542  C 1031 1545.36  1028.36 1548  1025 1548  C 1021.64 1548  1019 1545.36  1019 1542  C 1019 1538.64  1021.64 1536  1025 1536  Z " fill-rule="nonzero" fill="#ffffff" stroke="none" /><path d="M 1025 1536.5  C 1028.08 1536.5  1030.5 1538.92  1030.5 1542  C 1030.5 1545.08  1028.08 1547.5  1025 1547.5  C 1021.92 1547.5  1019.5 1545.08  1019.5 1542  C 1019.5 1538.92  1021.92 1536.5  1025 1536.5  Z " stroke-width="1" stroke="#797979" fill="none" /><path d="M 1025 1545  C 1023.32 1545  1022 1543.68  1022 1542  C 1022 1540.32  1023.32 1539  1025 1539  C 1026.68 1539  1028 1540.32  1028 1542  C 1028 1543.68  1026.68 1545  1025 1545  " fill-rule="nonzero" fill="#797979" stroke="none" /></svg>