<?xml version="1.0" encoding="utf-8"?>
<svg version="1.1" xmlns:xlink="http://www.w3.org/1999/xlink" width="318px" height="208px" xmlns="http://www.w3.org/2000/svg">
  <g transform="matrix(1 0 0 1 -1369 -1032 )">
    <path d="M 1370 1036  A 3 3 0 0 1 1373 1033 L 1683 1033  A 3 3 0 0 1 1686 1036 L 1686 1236  A 3 3 0 0 1 1683 1239 L 1373 1239  A 3 3 0 0 1 1370 1236 L 1370 1036  Z " fill-rule="nonzero" fill="#ff3399" stroke="none" fill-opacity="0.0980392156862745" />
    <path d="M 1369.5 1036  A 3.5 3.5 0 0 1 1373 1032.5 L 1683 1032.5  A 3.5 3.5 0 0 1 1686.5 1036 L 1686.5 1236  A 3.5 3.5 0 0 1 1683 1239.5 L 1373 1239.5  A 3.5 3.5 0 0 1 1369.5 1236 L 1369.5 1036  Z " stroke-width="1" stroke-dasharray="9,4" stroke="#ff3399" fill="none" stroke-dashoffset="0.5" />
  </g>
</svg>