<?xml version="1.0" encoding="utf-8"?>
<svg version="1.1" xmlns:xlink="http://www.w3.org/1999/xlink" width="11px" height="7px" xmlns="http://www.w3.org/2000/svg">
  <g transform="matrix(1 0 0 1 -1153 -1742 )">
    <path d="M 10.7407407407406 5.23232323232321  C 10.9135802469136 5.34231200897875  11 5.47586980920312  11 5.63299663299665  C 11 5.79012345679007  10.9135802469136 5.92368125701455  10.7407407407406 6.03367003367009  L 9.48148148148152 6.83501683501686  C 9.30864197530855 6.94500561167229  9.09876543209884 7  8.85185185185196 7  C 8.60493827160485 7  8.39506172839515 6.94500561167229  8.22222222222217 6.83501683501686  L 5.5 5.10269360269365  L 2.77777777777783 6.83501683501686  C 2.60493827160485 6.94500561167229  2.39506172839515 7  2.14814814814804 7  C 1.90123456790116 7  1.69135802469145 6.94500561167229  1.51851851851848 6.83501683501686  L 0.259259259259352 6.03367003367009  C 0.0864197530863748 5.92368125701455  0 5.79012345679007  0 5.63299663299665  C 0 5.47586980920312  0.0864197530863748 5.34231200897875  0.259259259259352 5.23232323232321  L 2.98148148148152 3.5  L 0.259259259259352 1.76767676767679  C 0.0864197530863748 1.65768799102125  0 1.52413019079688  0 1.36700336700335  C 0 1.20987654320993  0.0864197530863748 1.07631874298545  0.259259259259352 0.966329966329909  L 1.51851851851848 0.164983164983141  C 1.69135802469145 0.0549943883277138  1.90123456790116 0  2.14814814814804 0  C 2.39506172839515 0  2.60493827160485 0.0549943883277138  2.77777777777783 0.164983164983141  L 5.5 1.89730639730635  L 8.22222222222217 0.164983164983141  C 8.39506172839515 0.0549943883277138  8.60493827160485 0  8.85185185185196 0  C 9.09876543209884 0  9.30864197530855 0.0549943883277138  9.48148148148152 0.164983164983141  L 10.7407407407406 0.966329966329909  C 10.9135802469136 1.07631874298545  11 1.20987654320993  11 1.36700336700335  C 11 1.52413019079688  10.9135802469136 1.65768799102125  10.7407407407406 1.76767676767679  L 8.01851851851848 3.5  L 10.7407407407406 5.23232323232321  Z " fill-rule="nonzero" fill="#000000" stroke="none" transform="matrix(1 0 0 1 1153 1742 )" />
  </g>
</svg>