<?xml version="1.0" encoding="utf-8"?>
<svg version="1.1" xmlns:xlink="http://www.w3.org/1999/xlink" width="11px" height="10px" xmlns="http://www.w3.org/2000/svg">
  <g transform="matrix(1 0 0 1 -1161 -1329 )">
    <path d="M 10.7407407407406 7.47474747474744  C 10.9135802469136 7.63187429854107  11 7.82267115600446  11 8.04713804713807  C 11 8.27160493827153  10.9135802469136 8.46240179573507  10.7407407407406 8.6195286195287  L 9.48148148148152 9.7643097643098  C 9.30864197530855 9.92143658810327  9.09876543209884 10  8.85185185185196 10  C 8.60493827160485 10  8.39506172839515 9.92143658810327  8.22222222222217 9.7643097643098  L 5.5 7.28956228956235  L 2.77777777777783 9.7643097643098  C 2.60493827160485 9.92143658810327  2.39506172839515 10  2.14814814814804 10  C 1.90123456790116 10  1.69135802469145 9.92143658810327  1.51851851851848 9.7643097643098  L 0.259259259259352 8.6195286195287  C 0.0864197530863748 8.46240179573507  0 8.27160493827153  0 8.04713804713807  C 0 7.82267115600446  0.0864197530863748 7.63187429854107  0.259259259259352 7.47474747474744  L 2.98148148148152 5  L 0.259259259259352 2.52525252525256  C 0.0864197530863748 2.36812570145893  0 2.17732884399555  0 1.95286195286193  C 0 1.72839506172847  0.0864197530863748 1.53759820426493  0.259259259259352 1.3804713804713  L 1.51851851851848 0.235690235690202  C 1.69135802469145 0.0785634118967339  1.90123456790116 0  2.14814814814804 0  C 2.39506172839515 0  2.60493827160485 0.0785634118967339  2.77777777777783 0.235690235690202  L 5.5 2.71043771043765  L 8.22222222222217 0.235690235690202  C 8.39506172839515 0.0785634118967339  8.60493827160485 0  8.85185185185196 0  C 9.09876543209884 0  9.30864197530855 0.0785634118967339  9.48148148148152 0.235690235690202  L 10.7407407407406 1.3804713804713  C 10.9135802469136 1.53759820426493  11 1.72839506172847  11 1.95286195286193  C 11 2.17732884399555  10.9135802469136 2.36812570145893  10.7407407407406 2.52525252525256  L 8.01851851851848 5  L 10.7407407407406 7.47474747474744  Z " fill-rule="nonzero" fill="#666666" stroke="none" transform="matrix(1 0 0 1 1161 1329 )" />
  </g>
</svg>