<?xml version="1.0" encoding="utf-8"?>
<svg version="1.1" xmlns:xlink="http://www.w3.org/1999/xlink" width="13px" height="14px" xmlns="http://www.w3.org/2000/svg">
  <g transform="matrix(1 0 0 1 -917 -1175 )">
    <path d="M 12.6936026936027 10.4646464646464  C 12.8978675645343 10.6846240179574  13 10.9517396184063  13 11.2659932659933  C 13 11.5802469135802  12.8978675645343 11.8473625140291  12.6936026936027 12.0673400673401  L 11.2053872053871 13.6700336700337  C 11.0011223344557 13.8900112233445  10.7530864197531 14  10.4612794612794 14  C 10.1694725028059 14  9.92143658810323 13.8900112233445  9.71717171717171 13.6700336700337  L 6.5 10.2053872053872  L 3.28282828282829 13.6700336700337  C 3.07856341189677 13.8900112233445  2.83052749719417 14  2.53872053872055 14  C 2.24691358024683 14  1.99887766554434 13.8900112233445  1.79461279461287 13.6700336700337  L 0.306397306397287 12.0673400673401  C 0.102132435465762 11.8473625140291  0 11.5802469135802  0 11.2659932659933  C 0 10.9517396184063  0.102132435465762 10.6846240179574  0.306397306397287 10.4646464646464  L 3.52356902356905 7  L 0.306397306397287 3.53535353535356  C 0.102132435465762 3.31537598204261  0 3.0482603815937  0 2.73400673400673  C 0 2.41975308641977  0.102132435465762 2.15263748597085  0.306397306397287 1.93265993265991  L 1.79461279461287 0.329966329966339  C 1.99887766554434 0.109988776655471  2.24691358024683 0  2.53872053872055 0  C 2.83052749719417 0  3.07856341189677 0.109988776655471  3.28282828282829 0.329966329966339  L 6.5 3.79461279461278  L 9.71717171717171 0.329966329966339  C 9.92143658810323 0.109988776655471  10.1694725028059 0  10.4612794612794 0  C 10.7530864197531 0  11.0011223344557 0.109988776655471  11.2053872053871 0.329966329966339  L 12.6936026936027 1.93265993265991  C 12.8978675645343 2.15263748597085  13 2.41975308641977  13 2.73400673400673  C 13 3.0482603815937  12.8978675645343 3.31537598204261  12.6936026936027 3.53535353535356  L 9.47643097643095 7  L 12.6936026936027 10.4646464646464  Z " fill-rule="nonzero" fill="#1abc9c" stroke="none" transform="matrix(1 0 0 1 917 1175 )" />
  </g>
</svg>