<?xml version="1.0" encoding="utf-8"?>
<svg version="1.1" xmlns:xlink="http://www.w3.org/1999/xlink" width="246px" height="10px" preserveAspectRatio="xMinYMid meet" viewBox="719 1446  246 8" xmlns="http://www.w3.org/2000/svg">
  <path d="M 724.5 1470  L 724.5 1455  A 5 5 0 0 1 729.5 1450.5 L 955 1450.5  A 5 5 0 0 0 960.5 1445.5 L 960.5 384  A 5 5 0 0 0 955 379.5 L 923 379.5  A 3 3 0 0 0 920 376.5 A 3 3 0 0 0 917 379.5 L 713 379.5  A 5 5 0 0 1 708.5 374.5 L 708.5 348.5  A 1.5 1.5 0 0 0 707 347.5 L 705 347.5  " stroke-width="1" stroke="#008000" fill="none" />
</svg>