<?xml version="1.0" encoding="utf-8"?>
<svg version="1.1" xmlns:xlink="http://www.w3.org/1999/xlink" width="428px" height="335px" xmlns="http://www.w3.org/2000/svg">
  <g transform="matrix(1 0 0 1 -746 -1354 )">
    <path d="M 747 1358  A 3 3 0 0 1 750 1355 L 1170 1355  A 3 3 0 0 1 1173 1358 L 1173 1685  A 3 3 0 0 1 1170 1688 L 750 1688  A 3 3 0 0 1 747 1685 L 747 1358  Z " fill-rule="nonzero" fill="#ff3399" stroke="none" fill-opacity="0.0980392156862745" />
    <path d="M 746.5 1358  A 3.5 3.5 0 0 1 750 1354.5 L 1170 1354.5  A 3.5 3.5 0 0 1 1173.5 1358 L 1173.5 1685  A 3.5 3.5 0 0 1 1170 1688.5 L 750 1688.5  A 3.5 3.5 0 0 1 746.5 1685 L 746.5 1358  Z " stroke-width="1" stroke-dasharray="9,4" stroke="#ff3399" fill="none" stroke-dashoffset="0.5" />
  </g>
</svg>