<?xml version="1.0" encoding="utf-8"?>
<svg version="1.1" xmlns:xlink="http://www.w3.org/1999/xlink" width="532px" height="197px" xmlns="http://www.w3.org/2000/svg">
  <g transform="matrix(1 0 0 1 -92 -1104 )">
    <path d="M 93 1108  A 3 3 0 0 1 96 1105 L 620 1105  A 3 3 0 0 1 623 1108 L 623 1297  A 3 3 0 0 1 620 1300 L 96 1300  A 3 3 0 0 1 93 1297 L 93 1108  Z " fill-rule="nonzero" fill="#ff3399" stroke="none" fill-opacity="0.0980392156862745" />
    <path d="M 92.5 1108  A 3.5 3.5 0 0 1 96 1104.5 L 620 1104.5  A 3.5 3.5 0 0 1 623.5 1108 L 623.5 1297  A 3.5 3.5 0 0 1 620 1300.5 L 96 1300.5  A 3.5 3.5 0 0 1 92.5 1297 L 92.5 1108  Z " stroke-width="1" stroke-dasharray="9,4" stroke="#ff3399" fill="none" stroke-dashoffset="0.5" />
  </g>
</svg>