<?xml version="1.0" encoding="utf-8"?>
<svg version="1.1" xmlns:xlink="http://www.w3.org/1999/xlink" width="304px" height="135px" xmlns="http://www.w3.org/2000/svg">
  <g transform="matrix(1 0 0 1 -103 -882 )">
    <path d="M 104 886  A 3 3 0 0 1 107 883 L 403 883  A 3 3 0 0 1 406 886 L 406 1013  A 3 3 0 0 1 403 1016 L 107 1016  A 3 3 0 0 1 104 1013 L 104 886  Z " fill-rule="nonzero" fill="#ff3399" stroke="none" fill-opacity="0.0980392156862745" />
    <path d="M 103.5 886  A 3.5 3.5 0 0 1 107 882.5 L 403 882.5  A 3.5 3.5 0 0 1 406.5 886 L 406.5 1013  A 3.5 3.5 0 0 1 403 1016.5 L 107 1016.5  A 3.5 3.5 0 0 1 103.5 1013 L 103.5 886  Z " stroke-width="1" stroke-dasharray="9,4" stroke="#ff3399" fill="none" stroke-dashoffset="0.5" />
  </g>
</svg>