<?xml version="1.0" encoding="utf-8"?>
<svg version="1.1" xmlns:xlink="http://www.w3.org/1999/xlink" width="428px" height="335px" xmlns="http://www.w3.org/2000/svg">
  <g transform="matrix(1 0 0 1 -758 -1333 )">
    <path d="M 759 1337  A 3 3 0 0 1 762 1334 L 1182 1334  A 3 3 0 0 1 1185 1337 L 1185 1664  A 3 3 0 0 1 1182 1667 L 762 1667  A 3 3 0 0 1 759 1664 L 759 1337  Z " fill-rule="nonzero" fill="#ff3399" stroke="none" fill-opacity="0.0980392156862745" />
    <path d="M 758.5 1337  A 3.5 3.5 0 0 1 762 1333.5 L 1182 1333.5  A 3.5 3.5 0 0 1 1185.5 1337 L 1185.5 1664  A 3.5 3.5 0 0 1 1182 1667.5 L 762 1667.5  A 3.5 3.5 0 0 1 758.5 1664 L 758.5 1337  Z " stroke-width="1" stroke-dasharray="9,4" stroke="#ff3399" fill="none" stroke-dashoffset="0.5" />
  </g>
</svg>