<?xml version="1.0" encoding="utf-8"?>
<svg version="1.1" xmlns:xlink="http://www.w3.org/1999/xlink" width="16px" height="16px" xmlns="http://www.w3.org/2000/svg">
  <g transform="matrix(1 0 0 1 -545 -414 )">
    <path d="M 3.984375 1.07291666666663  C 5.21006944444446 0.357638888888857  6.54861111111114 0  8 0  C 9.45138888888886 0  10.7899305555555 0.357638888888857  12.015625 1.07291666666663  C 13.2413194444445 1.78819444444446  14.2118055555555 2.75868055555554  14.9270833333334 3.984375  C 15.6423611111111 5.21006944444446  16 6.54861111111114  16 8  C 16 9.45138888888886  15.6423611111111 10.7899305555555  14.9270833333334 12.015625  C 14.2118055555555 13.2413194444445  13.2413194444445 14.2118055555555  12.015625 14.9270833333334  C 10.7899305555555 15.6423611111111  9.45138888888886 16  8 16  C 6.54861111111114 16  5.21006944444446 15.6423611111111  3.984375 14.9270833333334  C 2.75868055555554 14.2118055555555  1.78819444444446 13.2413194444445  1.07291666666663 12.015625  C 0.357638888888857 10.7899305555555  0 9.45138888888886  0 8  C 0 6.54861111111114  0.357638888888857 5.21006944444446  1.07291666666663 3.984375  C 1.78819444444446 2.75868055555554  2.75868055555554 1.78819444444446  3.984375 1.07291666666663  Z M 9.23958333333337 13.234375  C 9.30208333333337 13.1684027777778  9.33333333333337 13.0868055555555  9.33333333333337 12.9895833333334  L 9.33333333333337 11.0104166666666  C 9.33333333333337 10.9131944444445  9.30208333333337 10.8315972222222  9.23958333333337 10.765625  C 9.17708333333337 10.6996527777778  9.10069444444446 10.6666666666666  9.01041666666663 10.6666666666666  L 7.01041666666663 10.6666666666666  C 6.92013888888886 10.6666666666666  6.84027777777777 10.7013888888889  6.77083333333337 10.7708333333334  C 6.70138888888886 10.8402777777778  6.66666666666663 10.9201388888889  6.66666666666663 11.0104166666666  L 6.66666666666663 12.9895833333334  C 6.66666666666663 13.0798611111111  6.70138888888886 13.1597222222222  6.77083333333337 13.2291666666666  C 6.84027777777777 13.2986111111111  6.92013888888886 13.3333333333334  7.01041666666663 13.3333333333334  L 9.01041666666663 13.3333333333334  C 9.10069444444446 13.3333333333334  9.17708333333337 13.3003472222222  9.23958333333337 13.234375  Z M 9.203125 9.58854166666663  C 9.26909722222223 9.53645833333337  9.30555555555554 9.47569444444446  9.3125 9.40625  L 9.5 2.9375  C 9.5 2.85416666666663  9.46527777777777 2.79166666666663  9.39583333333337 2.75  C 9.32638888888886 2.69444444444446  9.24305555555554 2.66666666666663  9.14583333333337 2.66666666666663  L 6.85416666666663 2.66666666666663  C 6.75694444444446 2.66666666666663  6.67361111111114 2.69444444444446  6.60416666666663 2.75  C 6.53472222222223 2.79166666666663  6.5 2.85416666666663  6.5 2.9375  L 6.67708333333337 9.40625  C 6.67708333333337 9.47569444444446  6.71180555555554 9.53645833333337  6.78125 9.58854166666663  C 6.85069444444446 9.640625  6.93402777777777 9.66666666666663  7.03125 9.66666666666663  L 8.95833333333337 9.66666666666663  C 9.05555555555554 9.66666666666663  9.13715277777777 9.640625  9.203125 9.58854166666663  Z " fill-rule="nonzero" fill="#666666" stroke="none" transform="matrix(1 0 0 1 545 414 )" />
  </g>
</svg>