<?xml version="1.0" encoding="utf-8"?>
<svg version="1.1" xmlns:xlink="http://www.w3.org/1999/xlink" width="339px" height="36px" xmlns="http://www.w3.org/2000/svg">
  <g transform="matrix(1 0 0 1 -86 -122 )">
    <path d="M 87 126  A 3 3 0 0 1 90 123 L 421 123  A 3 3 0 0 1 424 126 L 424 154  A 3 3 0 0 1 421 157 L 90 157  A 3 3 0 0 1 87 154 L 87 126  Z " fill-rule="nonzero" fill="#ff3399" stroke="none" fill-opacity="0.0980392156862745" />
    <path d="M 86.5 126  A 3.5 3.5 0 0 1 90 122.5 L 421 122.5  A 3.5 3.5 0 0 1 424.5 126 L 424.5 154  A 3.5 3.5 0 0 1 421 157.5 L 90 157.5  A 3.5 3.5 0 0 1 86.5 154 L 86.5 126  Z " stroke-width="1" stroke-dasharray="9,4" stroke="#ff3399" fill="none" stroke-dashoffset="0.5" />
  </g>
</svg>