<?xml version="1.0" encoding="utf-8"?><svg version="1.1" xmlns:xlink="http://www.w3.org/1999/xlink" width="10px" height="10px" xmlns="http://www.w3.org/2000/svg"><g transform="matrix(1 0 0 1 -71 -103 )"><path d="M 76 104  C 78.24 104  80 105.76  80 108  C 80 110.24  78.24 112  76 112  C 73.76 112  72 110.24  72 108  C 72 105.76  73.76 104  76 104  Z " fill-rule="nonzero" fill="#ffffff" stroke="none" /><path d="M 76 104  C 78.24 104  80 105.76  80 108  C 80 110.24  78.24 112  76 112  C 73.76 112  72 110.24  72 108  C 72 105.76  73.76 104  76 104  Z " stroke-width="2" stroke="#1890ff" fill="none" /></g></svg>