<?xml version="1.0" encoding="utf-8"?><svg version="1.1" xmlns:xlink="http://www.w3.org/1999/xlink" width="10px" height="10px" xmlns="http://www.w3.org/2000/svg"><g transform="matrix(1 0 0 1 -70 -364 )"><path d="M 75 365  C 77.24 365  79 366.76  79 369  C 79 371.24  77.24 373  75 373  C 72.76 373  71 371.24  71 369  C 71 366.76  72.76 365  75 365  Z " fill-rule="nonzero" fill="#ffffff" stroke="none" /><path d="M 75 365  C 77.24 365  79 366.76  79 369  C 79 371.24  77.24 373  75 373  C 72.76 373  71 371.24  71 369  C 71 366.76  72.76 365  75 365  Z " stroke-width="2" stroke="#d9d9d9" fill="none" /></g></svg>