<?xml version="1.0" encoding="utf-8"?>
<svg version="1.1" xmlns:xlink="http://www.w3.org/1999/xlink" width="211px" height="82px" xmlns="http://www.w3.org/2000/svg">
  <g transform="matrix(1 0 0 1 -64 -139 )">
    <path d="M 65 143  A 3 3 0 0 1 68 140 L 271 140  A 3 3 0 0 1 274 143 L 274 217  A 3 3 0 0 1 271 220 L 68 220  A 3 3 0 0 1 65 217 L 65 143  Z " fill-rule="nonzero" fill="#ff3399" stroke="none" fill-opacity="0.0980392156862745" />
    <path d="M 64.5 143  A 3.5 3.5 0 0 1 68 139.5 L 271 139.5  A 3.5 3.5 0 0 1 274.5 143 L 274.5 217  A 3.5 3.5 0 0 1 271 220.5 L 68 220.5  A 3.5 3.5 0 0 1 64.5 217 L 64.5 143  Z " stroke-width="1" stroke-dasharray="9,4" stroke="#ff3399" fill="none" stroke-dashoffset="0.5" />
  </g>
</svg>