<?xml version="1.0" encoding="utf-8"?><svg version="1.1" xmlns:xlink="http://www.w3.org/1999/xlink" width="67px" height="67px" xmlns="http://www.w3.org/2000/svg"><g transform="matrix(1 0 0 1 -1068 -167 )"><path d="M 1101.5 167  C 1120.26 167  1135 181.74  1135 200.5  C 1135 219.26  1120.26 234  1101.5 234  C 1082.74 234  1068 219.26  1068 200.5  C 1068 181.74  1082.74 167  1101.5 167  Z " fill-rule="nonzero" fill="#ffffff" stroke="none" /><path d="M 1101.5 167.5  C 1119.98 167.5  1134.5 182.02  1134.5 200.5  C 1134.5 218.98  1119.98 233.5  1101.5 233.5  C 1083.02 233.5  1068.5 218.98  1068.5 200.5  C 1068.5 182.02  1083.02 167.5  1101.5 167.5  Z " stroke-width="1" stroke="#ffffff" fill="none" /></g></svg>