<?xml version="1.0" encoding="utf-8"?><svg version="1.1" xmlns:xlink="http://www.w3.org/1999/xlink" width="110px" height="110px" xmlns="http://www.w3.org/2000/svg"><g transform="matrix(1 0 0 1 -1048 -147 )"><path d="M 1103 147  C 1133.8 147  1158 171.2  1158 202  C 1158 232.8  1133.8 257  1103 257  C 1072.2 257  1048 232.8  1048 202  C 1048 171.2  1072.2 147  1103 147  Z " fill-rule="nonzero" fill="#e9e9e9" stroke="none" /><path d="M 1103 147.5  C 1133.52 147.5  1157.5 171.48  1157.5 202  C 1157.5 232.52  1133.52 256.5  1103 256.5  C 1072.48 256.5  1048.5 232.52  1048.5 202  C 1048.5 171.48  1072.48 147.5  1103 147.5  Z " stroke-width="1" stroke="#ffffff" fill="none" /></g></svg>