<?xml version="1.0" encoding="utf-8"?>
<svg version="1.1" xmlns:xlink="http://www.w3.org/1999/xlink" width="200px" height="45px" xmlns="http://www.w3.org/2000/svg">
  <g transform="matrix(1 0 0 1 -1005 -194 )">
    <path d="M 1006 198  A 3 3 0 0 1 1009 195 L 1201 195  A 3 3 0 0 1 1204 198 L 1204 235  A 3 3 0 0 1 1201 238 L 1009 238  A 3 3 0 0 1 1006 235 L 1006 198  Z " fill-rule="nonzero" fill="#ff3399" stroke="none" fill-opacity="0.0980392156862745" />
    <path d="M 1005.5 198  A 3.5 3.5 0 0 1 1009 194.5 L 1201 194.5  A 3.5 3.5 0 0 1 1204.5 198 L 1204.5 235  A 3.5 3.5 0 0 1 1201 238.5 L 1009 238.5  A 3.5 3.5 0 0 1 1005.5 235 L 1005.5 198  Z " stroke-width="1" stroke-dasharray="9,4" stroke="#ff3399" fill="none" stroke-dashoffset="0.5" />
  </g>
</svg>