<?xml version="1.0" encoding="utf-8"?>
<svg version="1.1" xmlns:xlink="http://www.w3.org/1999/xlink" width="149px" height="52px" xmlns="http://www.w3.org/2000/svg">
  <g transform="matrix(1 0 0 1 0 -357 )">
    <path d="M 1 361  A 3 3 0 0 1 4 358 L 145 358  A 3 3 0 0 1 148 361 L 148 405  A 3 3 0 0 1 145 408 L 4 408  A 3 3 0 0 1 1 405 L 1 361  Z " fill-rule="nonzero" fill="#ff3399" stroke="none" fill-opacity="0.0980392156862745" />
    <path d="M 0.5 361  A 3.5 3.5 0 0 1 4 357.5 L 145 357.5  A 3.5 3.5 0 0 1 148.5 361 L 148.5 405  A 3.5 3.5 0 0 1 145 408.5 L 4 408.5  A 3.5 3.5 0 0 1 0.5 405 L 0.5 361  Z " stroke-width="1" stroke-dasharray="9,4" stroke="#ff3399" fill="none" stroke-dashoffset="0.5" />
  </g>
</svg>