<?xml version="1.0" encoding="utf-8"?><svg version="1.1" xmlns:xlink="http://www.w3.org/1999/xlink" width="12px" height="12px" viewBox="1219 185  12 12" xmlns="http://www.w3.org/2000/svg"><path d="M 1225 185  C 1228.36 185  1231 187.64  1231 191  C 1231 194.36  1228.36 197  1225 197  C 1221.64 197  1219 194.36  1219 191  C 1219 187.64  1221.64 185  1225 185  Z " fill-rule="nonzero" fill="#ffffff" stroke="none" /><path d="M 1225 185.5  C 1228.08 185.5  1230.5 187.92  1230.5 191  C 1230.5 194.08  1228.08 196.5  1225 196.5  C 1221.92 196.5  1219.5 194.08  1219.5 191  C 1219.5 187.92  1221.92 185.5  1225 185.5  Z " stroke-width="1" stroke="#797979" fill="none" /><path d="M 1225 194  C 1223.32 194  1222 192.68  1222 191  C 1222 189.32  1223.32 188  1225 188  C 1226.68 188  1228 189.32  1228 191  C 1228 192.68  1226.68 194  1225 194  " fill-rule="nonzero" fill="#797979" stroke="none" /></svg>