<?xml version="1.0" encoding="utf-8"?>
<svg version="1.1" xmlns:xlink="http://www.w3.org/1999/xlink" width="12px" height="12px" viewBox="1019 185  12 12" xmlns="http://www.w3.org/2000/svg">
  <path d="M 1025 185  C 1028.36 185  1031 187.64  1031 191  C 1031 194.36  1028.36 197  1025 197  C 1021.64 197  1019 194.36  1019 191  C 1019 187.64  1021.64 185  1025 185  Z " fill-rule="nonzero" fill="#ffffff" stroke="none" />
  <path d="M 1025 185.5  C 1028.08 185.5  1030.5 187.92  1030.5 191  C 1030.5 194.08  1028.08 196.5  1025 196.5  C 1021.92 196.5  1019.5 194.08  1019.5 191  C 1019.5 187.92  1021.92 185.5  1025 185.5  Z " stroke-width="1" stroke="#797979" fill="none" />
  <path d="M 1025 194  C 1023.32 194  1022 192.68  1022 191  C 1022 189.32  1023.32 188  1025 188  C 1026.68 188  1028 189.32  1028 191  C 1028 192.68  1026.68 194  1025 194  " fill-rule="nonzero" fill="#797979" stroke="none" />
</svg>